<?xml version="1.0" standalone="no"?>
<svg viewBox="0 0 200 200" xmlns="http://www.w3.org/2000/svg">
  <path fill="#8A3FFC" d="M26.4,-40.5C38.2,-39,54.4,-39.9,66.8,-33.5C79.1,-27.2,87.7,-13.6,86.3,-0.8C84.9,12,73.6,23.9,60.8,29.6C48,35.2,33.8,34.6,23.4,40.4C13,46.2,6.5,58.5,-2.8,63.4C-12.2,68.3,-24.4,65.8,-33.9,59.5C-43.5,53.2,-50.4,43.2,-59.5,32.6C-68.6,22.1,-79.9,11,-82.6,-1.6C-85.3,-14.2,-79.5,-28.3,-71.4,-40.7C-63.3,-53,-53,-63.5,-40.7,-64.7C-28.5,-66,-14.2,-58,-3.4,-52.1C7.3,-46.1,14.7,-42.1,26.4,-40.5Z" transform="translate(100 100)" />
</svg>
