<?xml version="1.0" standalone="no"?>
<svg viewBox="0 0 200 200" xmlns="http://www.w3.org/2000/svg">
  <path fill="#8A3FFC" d="M44.2,-79.2C55.8,-69.9,62.5,-54.9,68,-40.8C73.4,-26.7,77.6,-13.3,77,-0.3C76.4,12.7,71.1,25.3,64.6,37.6C58.1,50,50.4,62,39.5,71.6C28.5,81.2,14.2,88.3,0.7,87.1C-12.8,85.8,-25.6,76.2,-39.1,68C-52.6,59.9,-66.8,53.3,-75.5,42.3C-84.2,31.2,-87.5,15.6,-85.4,1.2C-83.3,-13.1,-75.8,-26.3,-68.4,-39.7C-61.1,-53.2,-53.8,-67,-42.5,-76.3C-31.1,-85.7,-15.5,-90.6,0.4,-91.3C16.3,-91.9,32.7,-88.4,44.2,-79.2Z" transform="translate(100 100)" />
</svg>
