<?xml version="1.0" standalone="no"?>
<svg viewBox="0 0 200 200" xmlns="http://www.w3.org/2000/svg">
  <path fill="#8A3FFC" d="M41.4,-62.4C55.3,-55.6,69.1,-46.7,75,-34.1C80.9,-21.6,78.9,-5.3,77.2,11.6C75.5,28.4,74.2,45.8,66,59.7C57.8,73.6,42.8,84.1,26.3,88.3C9.9,92.5,-8,90.4,-24.8,85.2C-41.7,80,-57.4,71.7,-69.1,59.3C-80.8,46.9,-88.4,30.3,-87.8,14.5C-87.2,-1.4,-78.4,-16.6,-70.6,-31.6C-62.7,-46.5,-55.8,-61.3,-44.2,-69.1C-32.6,-76.8,-16.3,-77.6,-1.2,-75.7C13.8,-73.8,27.6,-69.1,41.4,-62.4Z" transform="translate(100 100)" />
</svg>
